# xmcd CD Database Entry
#
# Track frame offsets:
# 150
# 13105
# 31158
# 79037
# 121554
# 131341
#
# Disc length: 2229 seconds
#
# Revision: 1
# Processed by: cddbd v1.5.2PL0 Copyright (c) Steve Scherf et al.
# Submitted via: tcd 2.0b
#
DISCID=3808b306
DTITLE=Various Artist - Nicotine Transdermal System
DYEAR=1900
DGENRE=
TTITLE0=Introduction
TTITLE1=Stages of Change
TTITLE2=How to Use the Patch
TTITLE3=Ideas to Help You (Make Quitting Easier)
TTITLE4=If You Slip
TTITLE5=Relaxing Music
EXTD=
EXTT0=
EXTT1=
EXTT2=
EXTT3=
EXTT4=
EXTT5=
PLAYORDER=
